<svg xmlns="http://www.w3.org/2000/svg" viewBox="0 0 40 40" stroke="#c8a84b" fill="#c8a84b">
  <g transform="translate(10.5424,38.0000) scale(0.030508,-0.030508)" stroke="#c8a84b" fill="#c8a84b">
    <path d="M61 1131 c-37 -37 -42 -1021 -5 -1078 20 -32 60 -30 91 5 24 27 126 212 116 212 -2 0 -30 -18 -60 -40 -76 -54 -73 -57 -73 95 l0 135 88 0 c48 0 116 3 153 6 85 8 94 -1 104 -100 4 -42 10 -88 14 -103 l7 -28 17 25 c34 52 53 269 26 286 -6 4 -100 10 -208 13 l-196 6 0 35 0 35 187 -4 c207 -4 218 -1 218 53 0 17 11 85 25 151 30 145 30 143 3 119 -36 -33 -77 -104 -89 -159 -9 -40 -17 -55 -32 -59 -29 -7 -33 -2 -36 48 -10 209 -150 223 -177 19 -7 -54 -17 -63 -73 -63 l-24 0 6 186 c7 223 -13 274 -82 205z"/>
  </g>
</svg>
