<svg xmlns="http://www.w3.org/2000/svg" viewBox="0 0 40 40" stroke="#c8a84b" fill="#c8a84b">
  <g transform="translate(6.3902,38.0000) scale(0.029268,-0.029268)" stroke="#c8a84b" fill="#c8a84b">
    <path d="M694 1201 c-49 -21 -89 -104 -82 -172 4 -46 6 -46 -38 -13 -61 47 -244 -142 -244 -252 0 -7 -14 -15 -30 -19 -17 -4 -52 -21 -79 -39 l-49 -33 -11 39 c-14 45 -66 108 -90 108 -44 0 -53 -48 -17 -91 31 -36 40 -101 32 -226 -5 -81 -4 -95 6 -80 100 145 176 227 210 227 5 0 8 -28 8 -62 1 -35 7 -80 14 -100 l13 -37 -49 -48 c-142 -139 -253 -405 -140 -335 89 54 201 82 276 68 40 -8 44 -21 21 -66 -28 -54 29 -98 67 -51 99 123 -11 237 -196 203 -83 -16 -79 -2 33 120 l34 38 46 -34 c81 -59 222 -120 327 -141 62 -12 161 106 128 154 -22 30 -49 26 -75 -12 -45 -63 -77 -62 -233 12 -135 65 -176 122 -176 247 l0 76 53 -7 c28 -4 99 -22 156 -42 126 -42 176 -35 154 23 -11 29 -227 104 -299 104 -46 0 -45 22 7 100 50 75 59 79 101 47 119 -89 219 -66 262 60 47 137 -37 277 -140 234z"/>
  </g>
</svg>
