<svg xmlns="http://www.w3.org/2000/svg" viewBox="0 0 40 40" stroke="#c8a84b" fill="#c8a84b">
  <g transform="translate(2.6102,38.0000) scale(0.030508,-0.030508)" stroke="#c8a84b" fill="#c8a84b">
    <path d="M52 1130 c-49 -46 -20 -98 77 -134 181 -70 305 -188 449 -427 l22 -36 -197 -149 c-222 -167 -363 -296 -363 -332 0 -49 63 -16 238 127 246 199 282 228 322 256 31 21 45 26 48 17 49 -147 263 -354 400 -386 64 -15 82 -8 36 13 -137 62 -284 249 -405 514 -105 228 -147 303 -207 365 -140 143 -356 231 -420 172z"/>
    <path d="M556 250 c-169 -138 -227 -201 -178 -196 15 2 114 4 221 5 l194 1 -49 52 c-28 29 -69 81 -93 116 -24 34 -44 62 -45 62 -1 -1 -23 -19 -50 -40z"/>
  </g>
</svg>
