<svg xmlns="http://www.w3.org/2000/svg" viewBox="0 0 40 40" stroke="#c8a84b" fill="#c8a84b">
  <g transform="translate(2.7563,38.0000) scale(0.030252,-0.030252)" stroke="#c8a84b" fill="#c8a84b">
    <path d="M562 1150 c-73 -30 -44 -109 53 -145 78 -29 166 -93 284 -208 96 -93 114 -107 143 -107 73 0 87 49 20 65 -40 9 -52 21 -137 139 -153 212 -268 294 -363 256z"/>
    <path d="M338 979 c-144 -21 -248 -126 -265 -267 -13 -116 85 -121 116 -5 57 212 336 249 529 69 39 -36 44 -18 13 49 -50 111 -224 179 -393 154z"/>
    <path d="M415 722 c-173 -95 -266 -208 -250 -302 11 -64 85 -110 128 -78 19 14 20 23 11 105 -8 70 31 155 110 241 32 34 57 62 55 62 -2 0 -26 -13 -54 -28z"/>
    <path d="M756 674 c-39 -39 -22 -80 72 -169 93 -89 148 -169 168 -243 l12 -47 7 40 c37 188 -165 514 -259 419z"/>
    <path d="M527 549 c-21 -12 -47 -61 -47 -89 0 -71 126 -95 178 -35 57 67 -51 171 -131 124z"/>
    <path d="M30 445 c0 -115 110 -260 184 -241 49 12 41 59 -18 95 -49 31 -114 105 -136 156 -25 58 -30 57 -30 -10z"/>
    <path d="M832 318 c-7 -7 -12 -23 -12 -37 -1 -24 -2 -25 -14 -8 -30 40 -76 -8 -76 -79 0 -38 -42 -89 -101 -123 -58 -33 -42 -45 41 -32 94 15 150 79 150 170 l0 43 48 -49 c29 -30 54 -67 64 -98 l18 -50 -5 60 c-12 132 -73 243 -113 203z"/>
    <path d="M520 229 c-64 -51 -101 -62 -200 -61 -72 0 -90 -2 -76 -10 91 -51 304 -51 342 0 45 59 -9 117 -66 71z"/>
  </g>
</svg>
