<svg xmlns="http://www.w3.org/2000/svg" viewBox="0 0 40 40" stroke="#c8a84b" fill="#c8a84b">
  <g transform="translate(3.0678,38.0000) scale(0.030508,-0.030508)" stroke="#c8a84b" fill="#c8a84b">
    <path d="M561 1126 c-41 -44 -73 -163 -83 -313 -3 -49 -38 -42 -111 23 -42 39 -78 43 -107 14 -53 -53 31 -125 181 -155 l26 -5 -2 -157 -3 -157 -35 -23 c-66 -42 -137 -128 -89 -108 46 19 125 46 127 43 2 -2 8 -41 15 -88 26 -195 53 -218 48 -40 l-3 135 43 -2 c24 -1 59 -11 78 -22 42 -25 87 -27 108 -5 53 52 -52 128 -177 129 l-59 0 6 120 c10 170 13 183 45 190 48 10 131 65 161 107 42 58 38 63 -25 27 -52 -29 -144 -63 -152 -56 -9 9 40 165 67 212 58 102 12 207 -59 131z"/>
    <path d="M852 1120 c-68 -41 -62 -92 18 -152 117 -87 121 -250 12 -436 -36 -60 -33 -63 29 -23 154 99 215 317 136 486 -56 120 -128 166 -195 125z"/>
    <path d="M131 1005 c-158 -180 -119 -625 55 -625 97 0 110 94 20 149 -93 58 -105 249 -30 494 9 28 -12 20 -45 -18z"/>
  </g>
</svg>
