<svg xmlns="http://www.w3.org/2000/svg" viewBox="0 0 40 40" stroke="#c8a84b" fill="#c8a84b">
  <g transform="translate(3.6780,38.0000) scale(0.030508,-0.030508)" stroke="#c8a84b" fill="#c8a84b">
    <path d="M329 1105 c-38 -85 -24 -189 33 -252 l21 -22 -33 -58 c-53 -95 -148 -231 -237 -342 -100 -124 -99 -117 -14 -123 192 -14 196 -100 10 -224 -85 -56 -85 -58 -1 -30 278 95 333 281 95 321 -53 8 -54 1 16 93 59 78 143 205 196 297 33 58 41 65 78 65 15 0 27 5 27 10 0 6 -6 10 -13 10 -65 0 -148 130 -151 235 -1 77 -2 78 -27 20z"/>
    <path d="M816 1053 c-15 -107 -109 -233 -173 -233 -25 0 -13 -19 22 -31 27 -10 39 -23 56 -63 31 -74 92 -175 154 -258 66 -87 65 -79 11 -105 -169 -83 -193 -219 -44 -262 92 -26 86 -26 62 0 -93 102 -76 161 63 229 37 18 70 34 72 36 2 2 -30 43 -72 91 -84 100 -139 181 -181 270 l-29 62 33 27 c62 52 86 152 59 235 -18 54 -26 54 -33 2z"/>
    <path d="M520 717 c-96 -49 -90 -196 11 -248 69 -35 72 -93 8 -155 -51 -49 -26 -83 34 -45 65 40 88 221 27 221 -77 0 -104 154 -29 169 39 8 51 37 23 58 -22 16 -42 16 -74 0z"/>
  </g>
</svg>
