<svg xmlns="http://www.w3.org/2000/svg" viewBox="0 0 40 40" stroke="#c8a84b" fill="#c8a84b">
  <g transform="translate(5.6610,38.0000) scale(0.030508,-0.030508)" stroke="#c8a84b" fill="#c8a84b">
    <path d="M519 1129 c-51 -51 -104 -209 -115 -347 l-7 -83 -41 6 c-65 10 -107 25 -174 62 -139 76 -140 75 -145 -116 -4 -206 3 -212 160 -134 56 27 90 37 142 41 l68 4 6 -28 c35 -160 19 -320 -38 -385 -50 -55 -52 -61 -29 -83 113 -114 222 141 181 424 l-8 55 73 -5 73 -5 18 -95 c23 -120 18 -198 -15 -270 -49 -106 -45 -140 15 -140 122 0 149 135 93 465 -33 189 -33 309 -1 365 21 34 27 39 87 65 74 33 37 145 -48 145 -74 0 -152 -140 -169 -302 l-7 -68 -58 0 c-51 0 -58 2 -64 23 -17 63 5 161 50 227 84 122 44 270 -47 179z"/>
  </g>
</svg>
