<svg xmlns="http://www.w3.org/2000/svg" viewBox="0 0 40 40" stroke="#c8a84b" fill="#c8a84b">
  <g transform="translate(2.0000,36.6387) scale(0.030252,-0.030252)" stroke="#c8a84b" fill="#c8a84b">
    <path d="M556 1045 c-17 -26 -27 -69 -46 -210 -17 -121 -28 -155 -49 -155 -10 0 -33 -3 -50 -6 -37 -8 -42 17 -16 79 47 112 -56 92 -168 -32 -219 -244 -189 -459 37 -267 48 40 159 92 164 76 7 -19 -93 -194 -137 -242 l-46 -50 -40 21 c-118 63 -210 -36 -150 -162 71 -150 344 100 429 395 26 88 175 99 196 14 104 -410 306 -597 412 -381 59 118 -2 163 -93 69 -68 -70 -125 -7 -210 234 -42 123 6 123 145 2 134 -117 222 -109 220 19 -1 168 -204 389 -299 327 -34 -22 -32 -56 6 -110 20 -28 29 -51 25 -61 -7 -19 -13 -18 -101 19 l-60 25 -16 63 c-9 35 -26 117 -37 183 -28 158 -73 216 -116 150z"/>
    <path d="M541 261 c-39 -42 -76 -170 -53 -185 5 -3 29 3 55 12 45 16 49 16 78 -1 62 -35 74 -11 43 93 -28 96 -78 129 -123 81z"/>
  </g>
</svg>
