<svg xmlns="http://www.w3.org/2000/svg" viewBox="0 0 40 40" stroke="#c8a84b" fill="#c8a84b">
  <g transform="translate(5.1765,38.0000) scale(0.030252,-0.030252)" stroke="#c8a84b" fill="#c8a84b">
    <path d="M316 1149 c-338 -48 -390 -453 -80 -621 l49 -27 0 117 c0 219 98 340 280 350 263 14 340 -218 161 -487 -109 -164 -198 -194 -465 -160 -213 27 -260 -203 -58 -280 28 -11 28 -11 -9 35 -97 118 -47 174 156 174 331 0 590 246 591 561 1 211 -315 381 -625 338z m-97 -215 c35 -45 18 -94 -43 -119 -63 -27 -86 26 -46 105 25 49 58 54 89 14z"/>
  </g>
</svg>
