<svg xmlns="http://www.w3.org/2000/svg" viewBox="0 0 40 40" stroke="#c8a84b" fill="#c8a84b">
  <g transform="translate(6.5000,38.0000) scale(0.030000,-0.030000)" stroke="#c8a84b" fill="#c8a84b">
    <path d="M701 1182 c-7 -14 -3 -35 16 -83 107 -261 12 -346 -199 -179 -180 141 -186 139 -190 -66 l-3 -139 -37 -3 c-76 -6 -108 40 -108 157 0 72 -6 81 -51 81 -25 0 -39 -36 -39 -99 0 -141 79 -231 201 -231 l39 0 0 -64 c0 -71 -5 -76 -85 -76 -52 0 -80 20 -110 80 -67 131 -137 69 -74 -65 47 -99 86 -123 214 -128 l50 -2 -3 -34 c-2 -21 -15 -45 -33 -63 -102 -102 -42 -268 97 -268 167 0 218 218 67 291 l-46 22 6 171 6 171 28 20 c15 11 45 37 66 57 46 45 43 46 168 -52 138 -108 178 -122 179 -62 11 389 -3 542 -46 525 -8 -3 -21 7 -31 26 -21 36 -66 43 -82 13z m-266 -987 c38 -37 32 -76 -17 -101 -50 -26 -88 -4 -88 51 0 69 58 97 105 50z"/>
  </g>
</svg>
