<svg xmlns="http://www.w3.org/2000/svg" viewBox="0 0 40 40" stroke="#c8a84b" fill="#c8a84b">
  <g transform="translate(5.6303,38.0000) scale(0.030252,-0.030252)" stroke="#c8a84b" fill="#c8a84b">
    <path d="M690 1140 c-11 -11 -20 -27 -20 -35 0 -10 -10 -15 -33 -15 -225 0 -528 -279 -485 -447 14 -59 40 -70 204 -85 l127 -11 -6 -70 c-11 -132 -95 -244 -209 -280 -75 -23 -108 -23 -108 3 0 26 -38 60 -67 60 -40 0 -59 -54 -54 -152 3 -74 90 -103 114 -38 9 23 19 31 47 35 240 38 375 162 411 379 l12 72 75 12 c164 26 210 71 199 192 -14 154 -117 163 -117 11 0 -81 -70 -106 -290 -106 -191 0 -234 18 -216 89 29 117 366 281 396 192 25 -77 91 -53 110 39 24 114 -33 212 -90 155z"/>
    <path d="M793 308 c-57 -27 -63 -109 -11 -153 47 -40 95 -30 123 25 43 83 -31 167 -112 128z"/>
  </g>
</svg>
