<svg xmlns="http://www.w3.org/2000/svg" viewBox="0 0 40 40" stroke="#c8a84b" fill="#c8a84b">
  <g transform="translate(3.2308,38.0000) scale(0.030769,-0.030769)" stroke="#c8a84b" fill="#c8a84b">
    <path d="M527 1062 c-100 -282 -216 -398 -305 -306 -50 53 -52 50 32 69 137 30 99 243 -49 271 -144 27 -251 -228 -114 -271 10 -3 25 -25 34 -48 9 -23 42 -81 72 -129 30 -48 55 -97 55 -110 -1 -13 -4 -59 -8 -104 -19 -235 111 -404 310 -404 192 0 339 214 297 430 -14 68 -13 71 73 205 28 44 59 96 69 115 10 19 29 53 42 75 98 159 -94 317 -222 183 -91 -97 -66 -201 55 -230 l52 -13 -24 -36 c-29 -42 -85 -72 -119 -64 -27 7 -174 287 -202 388 -20 70 -15 72 -48 -21z m-297 -62 c44 -44 14 -120 -48 -120 -28 0 -72 42 -72 68 0 59 79 93 120 52z m727 -5 c27 -19 37 -59 22 -88 -34 -64 -129 -46 -129 26 0 60 60 95 107 62z m-232 -470 c67 -201 -78 -383 -242 -304 -136 66 -136 231 -1 514 l72 150 77 -155 c43 -85 85 -177 94 -205z"/>
  </g>
</svg>
