<svg xmlns="http://www.w3.org/2000/svg" viewBox="0 0 40 40" stroke="#c8a84b" fill="#c8a84b">
  <g transform="translate(6.4615,38.0000) scale(0.030769,-0.030769)" stroke="#c8a84b" fill="#c8a84b">
    <path d="M452 1094 c-20 -76 -58 -145 -137 -255 -175 -241 -120 -429 125 -429 153 0 205 54 205 215 l0 100 -72 150 c-39 83 -79 176 -88 208 -20 69 -18 68 -33 11z"/>
    <path d="M167 984 c-3 -5 -10 -42 -16 -83 -9 -59 -18 -81 -43 -110 -108 -122 -105 -316 7 -427 52 -52 52 -53 59 -131 10 -121 38 -193 75 -193 5 0 9 68 9 150 1 83 4 155 7 160 3 5 -11 20 -33 33 -125 80 -151 191 -76 334 41 79 52 334 11 267z"/>
    <path d="M736 928 c-12 -46 -6 -200 10 -255 41 -142 1 -242 -122 -303 l-71 -35 1 -152 c0 -162 1 -166 32 -131 31 35 42 70 50 150 6 73 7 73 45 91 142 67 208 254 146 417 -13 36 -28 90 -32 120 -13 97 -45 150 -59 98z"/>
  </g>
</svg>
