<svg xmlns="http://www.w3.org/2000/svg" viewBox="0 0 40 40" stroke="#c8a84b" fill="#c8a84b">
  <g transform="translate(5.6610,38.0000) scale(0.030508,-0.030508)" stroke="#c8a84b" fill="#c8a84b">
    <path d="M247 1115 c-183 -229 -2 -827 185 -615 93 106 178 278 178 363 0 12 3 32 6 45 l7 23 24 -23 c133 -124 101 -454 -51 -543 -62 -36 -118 -47 -238 -46 -231 2 -388 -135 -304 -264 43 -66 100 -19 89 74 -5 44 -3 52 22 77 l27 27 17 -38 17 -39 12 42 13 42 59 0 c46 0 60 -3 60 -14 0 -8 11 -28 25 -43 l24 -28 1 30 c1 61 94 95 137 49 33 -36 49 -31 45 14 -3 34 0 39 32 56 20 11 36 23 36 28 0 6 23 7 54 3 59 -8 108 7 69 19 -75 24 -39 156 42 156 63 0 71 13 28 41 -61 39 -60 103 1 169 57 60 57 70 5 63 -58 -8 -80 44 -44 107 8 14 14 50 14 80 l1 55 -35 -40 -35 -40 -18 24 c-50 71 -187 181 -224 181 -2 0 -1 -41 1 -92 7 -181 -52 -296 -144 -285 -105 11 -156 139 -122 302 18 84 18 83 -16 40z"/>
  </g>
</svg>
