<svg xmlns="http://www.w3.org/2000/svg" viewBox="0 0 40 40" stroke="#c8a84b" fill="#c8a84b">
  <g transform="translate(6.4237,38.0000) scale(0.030508,-0.030508)" stroke="#c8a84b" fill="#c8a84b">
    <path d="M660 1118 c-94 -48 -124 -94 -129 -199 l-3 -79 -47 -34 c-151 -110 -236 -70 -260 122 -15 115 -60 167 -128 145 -111 -36 -53 -190 139 -368 102 -94 136 -94 270 1 l46 33 21 -77 c11 -42 24 -96 30 -120 l9 -42 -57 -59 c-57 -57 -128 -111 -164 -124 -51 -19 -135 63 -163 160 -31 106 -144 134 -144 34 0 -102 190 -291 292 -291 42 0 120 45 191 110 31 28 58 46 62 40 13 -22 -16 -166 -46 -228 -64 -131 26 -166 104 -41 83 135 77 287 -27 624 -80 258 -62 324 82 311 103 -10 150 28 104 84 -32 39 -103 39 -182 -2z"/>
  </g>
</svg>
