<?xml version="1.0" standalone="no"?>
<!DOCTYPE svg PUBLIC "-//W3C//DTD SVG 20010904//EN"
 "http://www.w3.org/TR/2001/REC-SVG-20010904/DTD/svg10.dtd">
<svg version="1.0" xmlns="http://www.w3.org/2000/svg"
 width="62.000000pt" height="118.000000pt" viewBox="0 0 62.000000 118.000000"
 preserveAspectRatio="xMidYMid meet">
<metadata>
Created by potrace 1.16, written by Peter Selinger 2001-2019
</metadata>
<g transform="translate(0.000000,118.000000) scale(0.100000,-0.100000)"
fill="#000000" stroke="none">
<path d="M61 1131 c-37 -37 -42 -1021 -5 -1078 20 -32 60 -30 91 5 24 27 126
212 116 212 -2 0 -30 -18 -60 -40 -76 -54 -73 -57 -73 95 l0 135 88 0 c48 0
116 3 153 6 85 8 94 -1 104 -100 4 -42 10 -88 14 -103 l7 -28 17 25 c34 52 53
269 26 286 -6 4 -100 10 -208 13 l-196 6 0 35 0 35 187 -4 c207 -4 218 -1 218
53 0 17 11 85 25 151 30 145 30 143 3 119 -36 -33 -77 -104 -89 -159 -9 -40
-17 -55 -32 -59 -29 -7 -33 -2 -36 48 -10 209 -150 223 -177 19 -7 -54 -17
-63 -73 -63 l-24 0 6 186 c7 223 -13 274 -82 205z"/>
</g>
</svg>
