<?xml version="1.0" standalone="no"?>
<!DOCTYPE svg PUBLIC "-//W3C//DTD SVG 20010904//EN"
 "http://www.w3.org/TR/2001/REC-SVG-20010904/DTD/svg10.dtd">
<svg version="1.0" xmlns="http://www.w3.org/2000/svg"
 width="68.000000pt" height="122.000000pt" viewBox="0 0 68.000000 122.000000"
 preserveAspectRatio="xMidYMid meet">
<metadata>
Created by potrace 1.16, written by Peter Selinger 2001-2019
</metadata>
<g transform="translate(0.000000,122.000000) scale(0.100000,-0.100000)"
fill="#000000" stroke="none">
<path d="M38 643 c-4 -585 -3 -613 33 -613 78 0 539 286 539 335 0 31 -97 73
-308 134 -18 5 9 19 127 65 282 110 281 134 -6 232 l-122 42 132 65 c226 112
256 147 172 194 -103 58 -355 122 -481 123 l-82 0 -4 -577z m237 471 c99 -20
238 -65 228 -75 -22 -21 -344 -169 -368 -169 -3 0 -5 61 -5 135 l0 136 38 -7
c20 -3 69 -13 107 -20z m74 -386 c72 -23 128 -45 123 -50 -7 -7 -264 -105
-319 -122 -23 -7 -23 -7 -23 110 l0 117 44 -6 c24 -4 103 -25 175 -49z m14
-339 c59 -18 107 -34 107 -38 0 -17 -309 -201 -338 -201 -13 0 -17 171 -6 252
l6 46 62 -14 c33 -8 109 -28 169 -45z"/>
</g>
</svg>
