<?xml version="1.0" standalone="no"?>
<!DOCTYPE svg PUBLIC "-//W3C//DTD SVG 20010904//EN"
 "http://www.w3.org/TR/2001/REC-SVG-20010904/DTD/svg10.dtd">
<svg version="1.0" xmlns="http://www.w3.org/2000/svg"
 width="114.000000pt" height="118.000000pt" viewBox="0 0 114.000000 118.000000"
 preserveAspectRatio="xMidYMid meet">
<metadata>
Created by potrace 1.16, written by Peter Selinger 2001-2019
</metadata>
<g transform="translate(0.000000,118.000000) scale(0.100000,-0.100000)"
fill="#000000" stroke="none">
<path d="M858 1122 c-26 -15 -79 -55 -117 -89 -83 -75 -70 -74 -139 -12 -197
177 -275 126 -107 -71 30 -36 55 -70 55 -76 0 -10 -297 -285 -432 -400 -112
-95 -118 -250 -12 -333 l29 -23 5 94 c7 135 94 250 368 487 l72 63 0 -163 c0
-206 -5 -239 -35 -239 -48 0 -67 -45 -32 -78 44 -41 130 -23 125 26 -1 15 5
61 14 102 9 41 24 117 32 169 19 122 20 123 108 78 141 -72 143 -34 9 140
l-71 92 94 80 c153 133 176 236 34 153z"/>
<path d="M943 805 l-21 -15 39 -77 c102 -202 27 -386 -199 -490 -169 -78 -382
23 -382 182 0 38 -16 30 -35 -17 -42 -103 -11 -264 62 -328 46 -41 51 -38 45
21 l-5 52 74 -7 c337 -31 589 182 589 498 0 108 -8 123 -83 166 -61 35 -57 34
-84 15z"/>
</g>
</svg>
