<?xml version="1.0" standalone="no"?>
<!DOCTYPE svg PUBLIC "-//W3C//DTD SVG 20010904//EN"
 "http://www.w3.org/TR/2001/REC-SVG-20010904/DTD/svg10.dtd">
<svg version="1.0" xmlns="http://www.w3.org/2000/svg"
 width="117.000000pt" height="123.000000pt" viewBox="0 0 117.000000 123.000000"
 preserveAspectRatio="xMidYMid meet">
<metadata>
Created by potrace 1.16, written by Peter Selinger 2001-2019
</metadata>
<g transform="translate(0.000000,123.000000) scale(0.100000,-0.100000)"
fill="#000000" stroke="none">
<path d="M833 1196 c-176 -102 -333 -382 -333 -596 0 -123 54 -103 63 23 12
197 147 433 296 520 37 22 56 40 56 53 0 28 -33 28 -82 0z"/>
<path d="M313 1055 c-215 -100 -276 -283 -208 -616 45 -220 36 -301 -43 -382
-33 -35 -35 -37 -11 -29 49 19 175 32 394 42 316 13 411 46 542 184 152 159
200 356 88 356 -29 0 -32 -4 -56 -91 -65 -234 -379 -422 -634 -379 -288 48
-277 804 13 846 73 10 96 49 54 87 -27 25 -58 20 -139 -18z"/>
<path d="M985 1037 c-183 -96 -288 -260 -329 -513 -14 -90 -10 -114 20 -114
19 0 23 10 39 107 43 247 138 391 317 476 71 34 87 46 88 65 0 34 -43 28 -135
-21z"/>
<path d="M448 364 c-35 -18 -46 -59 -27 -93 52 -93 239 -48 199 48 -22 55
-111 78 -172 45z"/>
</g>
</svg>
