<?xml version="1.0" standalone="no"?>
<!DOCTYPE svg PUBLIC "-//W3C//DTD SVG 20010904//EN"
 "http://www.w3.org/TR/2001/REC-SVG-20010904/DTD/svg10.dtd">
<svg version="1.0" xmlns="http://www.w3.org/2000/svg"
 width="89.000000pt" height="118.000000pt" viewBox="0 0 89.000000 118.000000"
 preserveAspectRatio="xMidYMid meet">
<metadata>
Created by potrace 1.16, written by Peter Selinger 2001-2019
</metadata>
<g transform="translate(0.000000,118.000000) scale(0.100000,-0.100000)"
fill="#000000" stroke="none">
<path d="M208 1103 c-23 -53 -48 -138 -48 -167 0 -15 5 -13 35 13 129 113 296
73 313 -75 l5 -44 -69 -1 -69 0 53 -21 c113 -45 -32 -127 -272 -153 l-58 -7 6
-40 c10 -62 45 -136 98 -206 l47 -62 -40 0 c-177 0 -242 -212 -88 -291 44 -22
49 -16 18 18 -121 128 81 274 207 148 30 -30 32 -29 35 5 5 55 -4 72 -75 148
-125 134 -145 196 -67 206 109 14 240 78 282 137 27 39 38 37 98 -17 155 -140
140 -291 -49 -497 l-65 -71 60 38 c70 44 137 107 168 156 l21 34 12 -75 c27
-178 30 -170 54 197 11 170 25 346 31 392 14 101 9 109 -25 40 -22 -45 -35
-96 -62 -236 -5 -22 -7 -21 -34 17 -33 44 -101 98 -136 107 -19 5 -21 11 -17
44 18 132 -45 206 -212 249 -43 11 -91 29 -107 41 l-29 21 -21 -48z"/>
</g>
</svg>
