<?xml version="1.0" standalone="no"?>
<!DOCTYPE svg PUBLIC "-//W3C//DTD SVG 20010904//EN"
 "http://www.w3.org/TR/2001/REC-SVG-20010904/DTD/svg10.dtd">
<svg version="1.0" xmlns="http://www.w3.org/2000/svg"
 width="99.000000pt" height="118.000000pt" viewBox="0 0 99.000000 118.000000"
 preserveAspectRatio="xMidYMid meet">
<metadata>
Created by potrace 1.16, written by Peter Selinger 2001-2019
</metadata>
<g transform="translate(0.000000,118.000000) scale(0.100000,-0.100000)"
fill="#000000" stroke="none">
<path d="M385 1125 c-41 -40 -26 -108 35 -165 38 -36 50 -84 57 -231 l6 -126
-54 -6 c-67 -8 -177 -9 -205 -1 -17 5 -23 16 -27 56 -14 119 -88 144 -138 46
-27 -52 -29 -137 -4 -175 l17 -26 204 7 203 6 1 -172 c0 -224 16 -289 74 -304
100 -25 156 75 67 121 -49 25 -55 47 -59 208 l-4 147 80 0 c120 0 181 -140
133 -308 -17 -59 53 -18 110 65 61 88 107 315 68 339 -11 6 -300 6 -355 -1
l-31 -4 0 207 c0 302 -70 426 -178 317z"/>
<path d="M105 1055 c-76 -27 -99 -95 -50 -153 70 -83 155 -36 155 86 0 67 -37
91 -105 67z"/>
</g>
</svg>
