<?xml version="1.0" standalone="no"?>
<!DOCTYPE svg PUBLIC "-//W3C//DTD SVG 20010904//EN"
 "http://www.w3.org/TR/2001/REC-SVG-20010904/DTD/svg10.dtd">
<svg version="1.0" xmlns="http://www.w3.org/2000/svg"
 width="114.000000pt" height="118.000000pt" viewBox="0 0 114.000000 118.000000"
 preserveAspectRatio="xMidYMid meet">
<metadata>
Created by potrace 1.16, written by Peter Selinger 2001-2019
</metadata>
<g transform="translate(0.000000,118.000000) scale(0.100000,-0.100000)"
fill="#000000" stroke="none">
<path d="M52 1130 c-49 -46 -20 -98 77 -134 181 -70 305 -188 449 -427 l22
-36 -197 -149 c-222 -167 -363 -296 -363 -332 0 -49 63 -16 238 127 246 199
282 228 322 256 31 21 45 26 48 17 49 -147 263 -354 400 -386 64 -15 82 -8 36
13 -137 62 -284 249 -405 514 -105 228 -147 303 -207 365 -140 143 -356 231
-420 172z"/>
<path d="M556 250 c-169 -138 -227 -201 -178 -196 15 2 114 4 221 5 l194 1
-49 52 c-28 29 -69 81 -93 116 -24 34 -44 62 -45 62 -1 -1 -23 -19 -50 -40z"/>
</g>
</svg>
