<?xml version="1.0" standalone="no"?>
<!DOCTYPE svg PUBLIC "-//W3C//DTD SVG 20010904//EN"
 "http://www.w3.org/TR/2001/REC-SVG-20010904/DTD/svg10.dtd">
<svg version="1.0" xmlns="http://www.w3.org/2000/svg"
 width="106.000000pt" height="118.000000pt" viewBox="0 0 106.000000 118.000000"
 preserveAspectRatio="xMidYMid meet">
<metadata>
Created by potrace 1.16, written by Peter Selinger 2001-2019
</metadata>
<g transform="translate(0.000000,118.000000) scale(0.100000,-0.100000)"
fill="#000000" stroke="none">
<path d="M108 1132 c-62 -41 -73 -67 -72 -177 12 -956 10 -925 55 -925 32 0
43 41 54 194 l10 148 165 103 c90 57 169 101 175 98 5 -4 67 -43 136 -89 69
-45 145 -94 167 -108 l42 -26 -6 -114 c-9 -158 29 -231 80 -153 17 24 36 367
36 631 0 137 0 139 30 188 75 122 58 255 -32 246 -47 -5 -67 -40 -76 -133 l-7
-80 -150 -107 c-82 -59 -168 -117 -191 -129 l-40 -22 -75 51 c-254 173 -279
203 -238 283 58 115 25 179 -63 121z m746 -495 c-9 -209 1 -207 -232 -52 l-63
42 118 70 c209 125 186 132 177 -60z m-626 89 c38 -19 94 -50 124 -68 l56 -34
-76 -46 c-42 -25 -101 -58 -129 -72 l-53 -26 0 140 c0 77 2 140 5 140 3 0 36
-15 73 -34z"/>
<path d="M424 310 c-43 -17 -74 -68 -74 -120 0 -130 189 -171 245 -54 51 107
-60 219 -171 174z"/>
</g>
</svg>
