<?xml version="1.0" standalone="no"?>
<!DOCTYPE svg PUBLIC "-//W3C//DTD SVG 20010904//EN"
 "http://www.w3.org/TR/2001/REC-SVG-20010904/DTD/svg10.dtd">
<svg version="1.0" xmlns="http://www.w3.org/2000/svg"
 width="99.000000pt" height="118.000000pt" viewBox="0 0 99.000000 118.000000"
 preserveAspectRatio="xMidYMid meet">
<metadata>
Created by potrace 1.16, written by Peter Selinger 2001-2019
</metadata>
<g transform="translate(0.000000,118.000000) scale(0.100000,-0.100000)"
fill="#000000" stroke="none">
<path d="M399 1131 l-23 -19 28 -70 28 -70 -6 -459 c-7 -457 -5 -492 27 -480
15 6 20 87 32 522 10 353 15 427 36 483 23 64 24 76 3 96 -22 23 -96 21 -125
-3z"/>
<path d="M712 969 c-124 -62 -131 -236 -14 -362 73 -78 82 -95 82 -153 0 -83
-58 -134 -154 -134 l-46 0 0 -101 0 -102 62 7 c206 21 356 205 308 376 -15 55
-67 130 -89 130 -30 0 -31 -22 -3 -59 112 -151 13 -353 -195 -396 l-33 -7 0
51 c0 48 2 51 25 51 181 0 235 201 95 355 -92 101 -110 200 -49 269 66 76 169
42 169 -56 0 -61 -74 -96 -86 -40 -10 46 -13 52 -28 52 -35 0 -30 -89 7 -115
93 -65 196 63 139 175 -37 74 -112 97 -190 59z"/>
<path d="M156 907 c-125 -213 -146 -334 -56 -329 30 2 76 -1 102 -6 79 -15
113 40 40 64 -74 24 -87 88 -39 201 49 113 11 169 -47 70z"/>
<path d="M34 511 c-33 -33 39 -243 106 -310 58 -58 94 -37 52 30 -76 122 -67
204 25 224 48 11 53 14 53 30 0 28 -211 51 -236 26z"/>
</g>
</svg>
