<?xml version="1.0" standalone="no"?>
<!DOCTYPE svg PUBLIC "-//W3C//DTD SVG 20010904//EN"
 "http://www.w3.org/TR/2001/REC-SVG-20010904/DTD/svg10.dtd">
<svg version="1.0" xmlns="http://www.w3.org/2000/svg"
 width="98.000000pt" height="119.000000pt" viewBox="0 0 98.000000 119.000000"
 preserveAspectRatio="xMidYMid meet">
<metadata>
Created by potrace 1.16, written by Peter Selinger 2001-2019
</metadata>
<g transform="translate(0.000000,119.000000) scale(0.100000,-0.100000)"
fill="#000000" stroke="none">
<path d="M316 1149 c-338 -48 -390 -453 -80 -621 l49 -27 0 117 c0 219 98 340
280 350 263 14 340 -218 161 -487 -109 -164 -198 -194 -465 -160 -213 27 -260
-203 -58 -280 28 -11 28 -11 -9 35 -97 118 -47 174 156 174 331 0 590 246 591
561 1 211 -315 381 -625 338z m-97 -215 c35 -45 18 -94 -43 -119 -63 -27 -86
26 -46 105 25 49 58 54 89 14z"/>
</g>
</svg>
