<?xml version="1.0" standalone="no"?>
<!DOCTYPE svg PUBLIC "-//W3C//DTD SVG 20010904//EN"
 "http://www.w3.org/TR/2001/REC-SVG-20010904/DTD/svg10.dtd">
<svg version="1.0" xmlns="http://www.w3.org/2000/svg"
 width="86.000000pt" height="118.000000pt" viewBox="0 0 86.000000 118.000000"
 preserveAspectRatio="xMidYMid meet">
<metadata>
Created by potrace 1.16, written by Peter Selinger 2001-2019
</metadata>
<g transform="translate(0.000000,118.000000) scale(0.100000,-0.100000)"
fill="#000000" stroke="none">
<path d="M86 1101 c-44 -147 -23 -206 108 -304 186 -138 235 -140 431 -16 l65
41 20 -25 c58 -74 141 -7 110 88 -29 87 -86 86 -211 -1 -107 -75 -162 -103
-202 -104 -93 -1 -227 150 -286 323 l-18 52 -17 -54z"/>
<path d="M36 805 c-26 -94 8 -186 71 -197 59 -10 128 -42 190 -88 91 -69 89
-69 190 -12 112 65 124 67 137 24 30 -105 136 -47 136 73 0 110 -65 128 -184
51 -184 -117 -253 -104 -452 89 -72 70 -84 78 -88 60z"/>
<path d="M98 519 c-24 -13 -23 -40 3 -73 14 -18 27 -61 39 -129 43 -252 167
-340 356 -253 l49 23 -78 -5 c-175 -11 -247 67 -247 269 0 119 -62 204 -122
168z"/>
<path d="M329 393 c-79 -94 25 -253 166 -252 l60 0 -62 29 c-80 37 -103 71
-103 156 0 77 -28 108 -61 67z"/>
</g>
</svg>
