<?xml version="1.0" standalone="no"?>
<!DOCTYPE svg PUBLIC "-//W3C//DTD SVG 20010904//EN"
 "http://www.w3.org/TR/2001/REC-SVG-20010904/DTD/svg10.dtd">
<svg version="1.0" xmlns="http://www.w3.org/2000/svg"
 width="94.000000pt" height="118.000000pt" viewBox="0 0 94.000000 118.000000"
 preserveAspectRatio="xMidYMid meet">
<metadata>
Created by potrace 1.16, written by Peter Selinger 2001-2019
</metadata>
<g transform="translate(0.000000,118.000000) scale(0.100000,-0.100000)"
fill="#000000" stroke="none">
<path d="M693 1117 c-80 -117 -71 -206 34 -331 127 -151 112 -335 -38 -492
-89 -92 -50 -187 49 -118 188 132 221 419 72 643 -100 150 -121 223 -90 305
13 36 -1 32 -27 -7z"/>
<path d="M567 808 c20 -140 1 -270 -47 -313 -43 -39 -9 -145 46 -145 99 0 161
214 104 363 -45 119 -116 185 -103 95z"/>
<path d="M91 761 c-74 -192 -79 -401 -12 -497 l29 -42 -23 -38 c-34 -59 -59
-134 -49 -144 14 -14 26 -1 57 60 49 94 44 91 112 68 78 -26 149 -14 264 44
l84 42 -33 11 c-18 6 -45 26 -60 44 l-28 32 -6 -24 c-15 -62 -112 -109 -185
-91 -50 12 -46 31 21 84 31 25 55 46 53 48 -11 11 -84 -16 -120 -44 l-44 -33
-20 25 c-19 24 -41 103 -41 148 0 23 2 24 65 18 74 -5 74 -6 40 44 -37 55 -57
136 -59 236 -1 108 -6 109 -45 9z"/>
</g>
</svg>
