<?xml version="1.0" standalone="no"?>
<!DOCTYPE svg PUBLIC "-//W3C//DTD SVG 20010904//EN"
 "http://www.w3.org/TR/2001/REC-SVG-20010904/DTD/svg10.dtd">
<svg version="1.0" xmlns="http://www.w3.org/2000/svg"
 width="103.000000pt" height="118.000000pt" viewBox="0 0 103.000000 118.000000"
 preserveAspectRatio="xMidYMid meet">
<metadata>
Created by potrace 1.16, written by Peter Selinger 2001-2019
</metadata>
<g transform="translate(0.000000,118.000000) scale(0.100000,-0.100000)"
fill="#000000" stroke="none">
<path d="M429 1143 l-117 -4 38 -86 c22 -48 46 -117 55 -154 l17 -68 -31 -44
c-29 -43 -118 -127 -133 -127 -16 0 -30 89 -26 167 l3 83 -27 0 c-35 0 -58 24
-58 61 0 53 -79 38 -111 -22 -25 -47 37 -129 97 -129 21 0 22 -5 25 -113 7
-199 84 -226 222 -78 26 28 51 51 54 51 24 0 -17 -331 -54 -439 -47 -136 25
-178 80 -46 83 201 96 444 41 774 l-7 44 68 -7 c87 -9 169 -38 217 -76 l37
-31 6 23 c3 13 5 68 3 123 l-3 100 -140 0 c-77 1 -192 -1 -256 -2z"/>
<path d="M745 686 c-72 -31 -115 -106 -196 -344 -64 -188 -80 -217 -129 -242
-59 -30 -45 -70 25 -70 76 0 111 54 186 282 75 230 98 268 164 268 31 0 45
-30 45 -101 0 -106 100 -200 144 -137 25 35 19 55 -29 106 -32 35 -47 62 -55
97 -18 78 -45 132 -71 140 -49 14 -55 14 -84 1z"/>
</g>
</svg>
