<?xml version="1.0" standalone="no"?>
<!DOCTYPE svg PUBLIC "-//W3C//DTD SVG 20010904//EN"
 "http://www.w3.org/TR/2001/REC-SVG-20010904/DTD/svg10.dtd">
<svg version="1.0" xmlns="http://www.w3.org/2000/svg"
 width="115.000000pt" height="118.000000pt" viewBox="0 0 115.000000 118.000000"
 preserveAspectRatio="xMidYMid meet">
<metadata>
Created by potrace 1.16, written by Peter Selinger 2001-2019
</metadata>
<g transform="translate(0.000000,118.000000) scale(0.100000,-0.100000)"
fill="#000000" stroke="none">
<path d="M354 1067 c-109 -115 -324 -424 -324 -465 0 -16 39 -20 258 -28 l202
-6 0 -47 c0 -73 39 -294 66 -370 8 -23 244 222 394 408 61 76 60 76 -37 85
-87 8 -267 42 -293 56 -38 20 -118 213 -156 373 -22 94 -15 95 -110 -6z m386
-463 c63 -8 121 -17 128 -20 21 -6 -244 -304 -270 -304 -37 0 -50 275 -15 313
31 32 15 31 157 11z"/>
<path d="M745 1091 c-22 -10 -53 -30 -70 -44 l-30 -25 45 -12 c66 -17 121 -79
156 -174 33 -87 32 -87 61 -42 118 182 10 381 -162 297z"/>
<path d="M1082 613 c-7 -2 -81 -84 -166 -181 -84 -98 -192 -215 -240 -261 -90
-87 -96 -99 -70 -125 25 -26 42 -19 106 42 247 235 484 570 370 525z"/>
</g>
</svg>
