<?xml version="1.0" standalone="no"?>
<!DOCTYPE svg PUBLIC "-//W3C//DTD SVG 20010904//EN"
 "http://www.w3.org/TR/2001/REC-SVG-20010904/DTD/svg10.dtd">
<svg version="1.0" xmlns="http://www.w3.org/2000/svg"
 width="98.000000pt" height="119.000000pt" viewBox="0 0 98.000000 119.000000"
 preserveAspectRatio="xMidYMid meet">
<metadata>
Created by potrace 1.16, written by Peter Selinger 2001-2019
</metadata>
<g transform="translate(0.000000,119.000000) scale(0.100000,-0.100000)"
fill="#000000" stroke="none">
<path d="M384 1125 c-89 -50 -157 -126 -144 -160 34 -91 8 -198 -110 -446
-113 -237 -114 -240 -63 -233 85 12 202 46 272 79 40 19 76 35 80 35 4 0 -14
-64 -40 -142 -26 -79 -50 -162 -54 -186 l-7 -42 82 29 c45 17 130 56 189 88
58 31 120 64 138 73 24 13 43 15 79 10 136 -21 178 61 98 197 -55 95 -181 32
-185 -91 0 -28 -269 -189 -287 -172 -2 3 19 76 48 163 l53 158 61 56 c158 145
177 159 229 159 89 0 114 64 54 142 -63 82 -116 74 -124 -19 -4 -42 -10 -52
-42 -75 -21 -15 -60 -47 -88 -72 -73 -66 -80 -34 -20 92 37 79 31 85 -47 44
-96 -50 -110 -68 -90 -119 48 -122 -41 -223 -259 -293 -53 -17 -53 -16 7 111
68 144 103 255 116 370 11 100 23 130 69 173 26 25 58 93 48 102 -1 2 -30 -12
-63 -31z"/>
</g>
</svg>
