<?xml version="1.0" standalone="no"?>
<!DOCTYPE svg PUBLIC "-//W3C//DTD SVG 20010904//EN"
 "http://www.w3.org/TR/2001/REC-SVG-20010904/DTD/svg10.dtd">
<svg version="1.0" xmlns="http://www.w3.org/2000/svg"
 width="94.000000pt" height="118.000000pt" viewBox="0 0 94.000000 118.000000"
 preserveAspectRatio="xMidYMid meet">
<metadata>
Created by potrace 1.16, written by Peter Selinger 2001-2019
</metadata>
<g transform="translate(0.000000,118.000000) scale(0.100000,-0.100000)"
fill="#000000" stroke="none">
<path d="M506 1105 c-23 -153 -162 -536 -194 -535 -4 1 -43 62 -88 137 -99
167 -96 166 -133 50 -65 -203 -82 -448 -34 -487 13 -10 31 -45 42 -78 70 -225
367 -203 389 28 5 57 11 59 86 34 61 -21 61 -23 11 81 -24 50 -55 128 -68 174
l-24 84 -43 -74 c-51 -86 -110 -170 -154 -217 l-31 -33 79 7 79 7 -5 -46 c-19
-164 -204 -177 -257 -18 -16 48 -14 56 14 69 95 43 254 267 305 427 20 64 25
60 49 -42 91 -379 237 -528 338 -346 46 83 59 325 21 413 l-14 34 -58 -89
c-58 -89 -126 -178 -132 -173 -8 9 -100 343 -130 477 -20 86 -37 157 -39 159
-1 2 -6 -18 -9 -43z m348 -532 c-12 -191 -69 -264 -125 -159 l-23 44 41 45
c22 24 53 63 68 86 37 55 43 52 39 -16z"/>
</g>
</svg>
