<?xml version="1.0" standalone="no"?>
<!DOCTYPE svg PUBLIC "-//W3C//DTD SVG 20010904//EN"
 "http://www.w3.org/TR/2001/REC-SVG-20010904/DTD/svg10.dtd">
<svg version="1.0" xmlns="http://www.w3.org/2000/svg"
 width="104.000000pt" height="118.000000pt" viewBox="0 0 104.000000 118.000000"
 preserveAspectRatio="xMidYMid meet">
<metadata>
Created by potrace 1.16, written by Peter Selinger 2001-2019
</metadata>
<g transform="translate(0.000000,118.000000) scale(0.100000,-0.100000)"
fill="#000000" stroke="none">
<path d="M540 1135 c-29 -35 15 -76 187 -175 l61 -35 4 -60 c4 -70 -7 -87
-105 -161 -143 -107 -240 -138 -295 -95 -208 167 -445 -34 -331 -280 71 -152
267 -159 362 -13 22 33 23 34 93 34 84 0 179 27 245 69 l46 29 7 -61 c16 -159
8 -174 -129 -246 -105 -54 -117 -77 -50 -99 42 -15 269 -13 292 1 10 6 11 98
6 417 l-6 409 39 3 39 3 0 125 0 125 -35 -2 c-19 0 -65 -4 -101 -8 -51 -6 -86
-3 -156 14 -107 25 -156 27 -173 6z m228 -602 c-51 -53 -130 -86 -220 -91
l-78 -5 0 31 c0 28 4 32 53 47 68 22 160 74 223 124 l49 39 3 -55 c3 -52 0
-59 -30 -90z m-445 8 c62 -30 84 -69 68 -122 -40 -132 -236 -135 -286 -5 -48
124 76 196 218 127z"/>
</g>
</svg>
