<?xml version="1.0" standalone="no"?>
<!DOCTYPE svg PUBLIC "-//W3C//DTD SVG 20010904//EN"
 "http://www.w3.org/TR/2001/REC-SVG-20010904/DTD/svg10.dtd">
<svg version="1.0" xmlns="http://www.w3.org/2000/svg"
 width="86.000000pt" height="118.000000pt" viewBox="0 0 86.000000 118.000000"
 preserveAspectRatio="xMidYMid meet">
<metadata>
Created by potrace 1.16, written by Peter Selinger 2001-2019
</metadata>
<g transform="translate(0.000000,118.000000) scale(0.100000,-0.100000)"
fill="#000000" stroke="none">
<path d="M592 1157 c-50 -53 -46 -139 8 -179 27 -19 30 -28 30 -75 0 -67 5
-68 -98 26 -280 255 -267 257 -267 -25 0 -146 -3 -223 -10 -220 -44 21 -184
75 -200 78 -24 4 -32 -186 -20 -430 l7 -133 32 26 c166 135 428 152 606 40
l39 -25 25 33 26 32 -22 19 c-118 97 -371 131 -542 72 -96 -33 -87 -45 -84
117 l3 135 119 -59 c140 -71 130 -75 117 45 -6 52 -11 150 -11 217 l0 121 63
-53 c34 -30 115 -105 180 -168 l117 -114 0 155 0 156 29 12 c89 36 114 137 51
200 -32 32 -168 30 -198 -3z"/>
<path d="M279 162 c-49 -40 -15 -125 50 -125 42 0 71 28 71 70 0 64 -70 96
-121 55z"/>
<path d="M501 144 c-27 -35 -26 -59 4 -89 42 -43 115 -14 115 45 0 61 -82 91
-119 44z"/>
</g>
</svg>
